<svg width="12" height="12" viewBox="0 0 12 12" fill="none" xmlns="http://www.w3.org/2000/svg">
<path d="M6 9.6C7 9.6 7.85 9.25 8.55 8.55C9.25 7.85 9.6 7 9.6 6C9.6 5 9.25 4.15 8.55 3.45C7.85 2.75 7 2.4 6 2.4V6L3.45 8.55C3.8 8.88 4.1925 9.1375 4.6275 9.3225C5.0625 9.5075 5.52 9.6 6 9.6ZM6 12C5.17 12 4.39 11.8425 3.66 11.5275C2.93 11.2125 2.295 10.785 1.755 10.245C1.215 9.705 0.7875 9.07 0.4725 8.34C0.1575 7.61 0 6.83 0 6C0 5.17 0.1575 4.39 0.4725 3.66C0.7875 2.93 1.215 2.295 1.755 1.755C2.295 1.215 2.93 0.7875 3.66 0.4725C4.39 0.1575 5.17 0 6 0C6.83 0 7.61 0.1575 8.34 0.4725C9.07 0.7875 9.705 1.215 10.245 1.755C10.785 2.295 11.2125 2.93 11.5275 3.66C11.8425 4.39 12 5.17 12 6C12 6.83 11.8425 7.61 11.5275 8.34C11.2125 9.07 10.785 9.705 10.245 10.245C9.705 10.785 9.07 11.2125 8.34 11.5275C7.61 11.8425 6.83 12 6 12ZM6 10.8C7.34 10.8 8.475 10.335 9.405 9.405C10.335 8.475 10.8 7.34 10.8 6C10.8 4.66 10.335 3.525 9.405 2.595C8.475 1.665 7.34 1.2 6 1.2C4.66 1.2 3.525 1.665 2.595 2.595C1.665 3.525 1.2 4.66 1.2 6C1.2 7.34 1.665 8.475 2.595 9.405C3.525 10.335 4.66 10.8 6 10.8Z" fill="#9CA3AF"/>
</svg>
